<svg width="25" height="22" viewBox="0 0 25 22" fill="none" xmlns="http://www.w3.org/2000/svg">
<path fill-rule="evenodd" clip-rule="evenodd" d="M24.3167 16.1879C24.179 15.8435 23.6279 15.6713 22.9735 15.7057C22.8013 15.7402 22.6291 15.7746 22.4913 15.8091C21.6991 16.0846 17.7038 17.4623 17.6349 17.4623L17.5661 17.4967L17.6349 17.5656C18.0483 17.9445 18.2894 18.3578 18.186 18.7022C18.0483 19.15 17.3939 19.4599 16.3261 19.5633C15.3618 19.6322 14.1907 19.5633 12.7786 19.2877C12.9508 19.2877 13.123 19.2877 13.2608 19.2877C14.2941 19.2877 15.224 19.2877 15.9817 19.2533C17.1183 19.15 17.6694 18.8744 17.7727 18.4611C17.7727 18.1511 17.6349 17.9445 17.2216 17.7378C16.8083 17.4967 15.9128 17.3934 15.0173 17.2556C14.4318 17.1868 13.8807 17.0834 13.4674 16.9801C12.0897 16.6012 10.6776 16.2568 9.02439 16.3946C8.74885 16.429 8.50776 16.4635 8.26666 16.4979C6.9923 16.739 5.71794 17.0145 4.44357 17.3934L4.27136 17.4279L6.20013 20.1832C6.51011 20.1143 6.88897 20.0455 7.23339 20.011C7.68114 19.9421 8.12889 19.9766 8.50776 20.0455C9.02439 20.1143 10.3676 20.3899 11.642 20.631C12.9508 20.941 14.2596 21.1476 14.7074 21.2509C15.0173 21.2854 15.224 21.2854 15.534 21.2509C16.1539 21.2165 16.8428 20.8721 17.4627 20.5277C17.6349 20.3899 17.8416 20.2866 18.0138 20.1832L23.7312 17.1179C24.3856 16.739 24.3856 16.3946 24.3167 16.1879Z" fill="#65ABA1"/>
<path fill-rule="evenodd" clip-rule="evenodd" d="M0.758287 17.0835H3.34145C3.44478 17.0835 3.61699 17.1524 3.68588 17.2901L6.13127 20.7688C6.2346 20.8721 6.20016 20.9755 6.06239 20.9755H3.47922C3.34145 20.9755 3.16924 20.8721 3.1348 20.7688L0.689402 17.2901C0.620518 17.1524 0.65496 17.0835 0.758287 17.0835Z" fill="#398378"/>
<path fill-rule="evenodd" clip-rule="evenodd" d="M19.8692 8.26621C18.6293 9.71278 16.9416 11.1249 16.0117 11.9515C15.4262 12.4682 14.2207 13.8114 13.9107 13.8114C13.5663 13.8114 12.4986 12.6748 11.8442 12.0549L11.7753 11.9515C10.8454 11.1938 9.15768 9.71278 7.84888 8.26621H11.5686C11.672 8.26621 11.7408 8.19732 11.8097 8.094L12.1197 7.47404L12.5675 10.0228C12.6019 10.1605 12.7052 10.2294 12.843 10.2294C12.9808 10.2294 13.0841 10.1261 13.1185 10.0228L13.4974 6.71631L13.8763 8.88617C13.8763 8.9895 13.9796 9.09282 14.0829 9.09282C14.2207 9.09282 14.324 9.02394 14.3929 8.92061L14.7718 8.02511L15.1506 9.26503C15.2195 9.36836 15.2884 9.43724 15.3917 9.43724C15.4951 9.43724 15.5984 9.36836 15.6328 9.26503L16.1839 8.23177H19.8692V8.26621Z" fill="#398378"/>
<path fill-rule="evenodd" clip-rule="evenodd" d="M21.4535 4.95978C21.3158 5.64863 20.9025 6.37191 20.2825 7.16409H15.9772C15.8739 7.16409 15.805 7.19853 15.7361 7.26741L15.3917 7.95626L14.9784 6.68189C14.944 6.57857 14.8406 6.47524 14.7373 6.47524C14.5995 6.47524 14.5307 6.54413 14.4618 6.64745L14.1518 7.37074L13.704 4.47759C13.6696 4.37426 13.5663 4.27094 13.463 4.27094H13.4285C13.2907 4.27094 13.1874 4.37426 13.1874 4.47759L12.7741 7.85293L12.3952 6.06193C12.3608 5.92417 12.2919 5.85528 12.1886 5.85528C12.0853 5.82084 11.9475 5.88972 11.9131 5.99305L11.362 7.16409H7.43556C6.8156 6.37191 6.33341 5.61419 6.26452 4.95978C6.02343 3.71986 6.23008 2.72104 6.8156 1.99775C7.36668 1.27446 8.3655 0.861158 9.74319 0.723389C9.88096 0.723389 10.0187 0.723389 10.1221 0.723389C11.2931 0.723389 12.533 1.20558 13.2907 2.06664C13.4285 2.23885 13.6696 2.34217 13.8418 2.34217C14.1174 2.34217 14.2896 2.23885 14.4618 2.06664C15.1851 1.20558 16.3905 0.723389 17.6305 0.723389C17.7338 0.723389 17.8371 0.723389 17.9404 0.723389C19.3526 0.861158 20.317 1.27446 20.9369 1.99775C21.5224 2.72104 21.6602 3.71986 21.4535 4.95978Z" fill="#65ABA1"/>
</svg>
