<svg width="25" height="22" viewBox="0 0 25 22" fill="none" xmlns="http://www.w3.org/2000/svg">
<path fill-rule="evenodd" clip-rule="evenodd" d="M18.9264 7.75298V7.17524H20.323C19.6505 6.54497 18.8229 5.80967 18.1505 5.17941V1.45035C18.1505 1.18774 17.9436 0.977655 17.6849 0.977655H16.0297C15.771 0.977655 15.5641 1.18774 15.5641 1.45035V2.86844C14.9434 2.2907 14.271 1.66044 13.6503 1.0827C13.3916 0.82009 13.2365 0.82009 13.0295 1.0827C10.9088 2.97349 8.78798 4.9168 6.6672 6.80758C6.51202 6.91263 6.35684 7.07019 6.20166 7.22776H7.28791V7.75298C7.28791 7.8055 7.28791 7.91054 7.28791 8.01559C7.28791 9.9589 7.28791 11.9547 7.28791 13.898C7.28791 14.2132 7.33964 14.2657 7.65 14.2657C8.73625 14.2657 9.87424 14.2657 11.0122 14.2657C11.2709 14.2657 11.3743 14.1606 11.3743 13.898C11.3226 12.9526 11.3743 11.9547 11.3743 10.9568C11.3743 10.3791 11.6847 10.1165 12.2019 10.0639C12.7192 10.0639 13.2365 10.0639 13.7537 10.0639C14.6848 10.0639 14.9434 10.3791 14.9434 11.3245C14.9434 12.2173 14.9434 13.0577 14.9434 14.0031C14.9434 14.2132 14.9952 14.3182 15.2538 14.3182C16.34 14.3182 17.478 14.3182 18.5643 14.3182C18.8746 14.3182 18.9781 14.2657 18.9781 14.0556V12.6375C18.9264 11.0093 18.9264 9.38116 18.9264 7.75298Z" fill="#65ABA1"/>
<path fill-rule="evenodd" clip-rule="evenodd" d="M18.6008 5.70759V1.12247C18.6008 0.799577 18.3528 0.54126 18.0428 0.54126H16.0589C15.749 0.54126 15.501 0.799577 15.501 1.12247V2.86611C17.5802 4.79653 18.6008 5.70759 18.6008 5.70759Z" fill="#398378"/>
<path fill-rule="evenodd" clip-rule="evenodd" d="M24.0096 16.3698C23.8718 16.0254 23.3208 15.8532 22.6664 15.8876C22.4942 15.9221 22.3219 15.9565 22.1842 15.991C21.392 16.2665 17.3967 17.6442 17.3278 17.6442L17.2589 17.6786L17.3278 17.7475C17.7411 18.1264 17.9822 18.5397 17.8789 18.8841C17.7411 19.3318 17.0867 19.6418 16.019 19.7452C15.0546 19.814 13.8836 19.7452 12.4715 19.4696C12.6437 19.4696 12.8159 19.4696 12.9537 19.4696C13.9869 19.4696 14.9169 19.4696 15.6746 19.4352C16.8112 19.3319 17.3623 19.0563 17.4656 18.643C17.4656 18.333 17.3278 18.1264 16.9145 17.9197C16.5012 17.6786 15.6057 17.5753 14.7102 17.4375C14.1247 17.3686 13.5736 17.2653 13.1603 17.162C11.7826 16.7831 10.3705 16.4387 8.71726 16.5765C8.44172 16.6109 8.20063 16.6454 7.95953 16.6798C6.68517 16.9209 5.41081 17.1964 4.13644 17.5753L3.96423 17.6097L5.893 20.3651C6.20298 20.2962 6.58184 20.2273 6.92627 20.1929C7.37401 20.124 7.82176 20.1585 8.20063 20.2273C8.71726 20.2962 10.0605 20.5718 11.3349 20.8129C12.6437 21.1228 13.9525 21.3295 14.4002 21.4328C14.7102 21.4673 14.9169 21.4673 15.2268 21.4328C15.8468 21.3984 16.5356 21.054 17.1556 20.7095C17.3278 20.5718 17.5345 20.4684 17.7067 20.3651L23.4241 17.2998C24.0785 16.9209 24.0785 16.5765 24.0096 16.3698Z" fill="#65ABA1"/>
<path fill-rule="evenodd" clip-rule="evenodd" d="M0.451158 17.2654H3.03433C3.13765 17.2654 3.30986 17.3343 3.37875 17.472L5.82415 20.9507C5.92747 21.054 5.89303 21.1574 5.75526 21.1574H3.17209C3.03433 21.1574 2.86211 21.054 2.82767 20.9507L0.382273 17.472C0.313389 17.3343 0.347831 17.2654 0.451158 17.2654Z" fill="#398378"/>
</svg>
