<svg width="25" height="24" viewBox="0 0 25 24" fill="none" xmlns="http://www.w3.org/2000/svg">
<path d="M11.5002 4H4.50024C3.96981 4 3.4611 4.21071 3.08603 4.58579C2.71096 4.96086 2.50024 5.46957 2.50024 6V20C2.50024 20.5304 2.71096 21.0391 3.08603 21.4142C3.4611 21.7893 3.96981 22 4.50024 22H18.5002C19.0307 22 19.5394 21.7893 19.9145 21.4142C20.2895 21.0391 20.5002 20.5304 20.5002 20V13" stroke="white" stroke-width="2" stroke-linecap="round" stroke-linejoin="round"/>
<path d="M19.0002 2.50001C19.3981 2.10219 19.9376 1.87869 20.5002 1.87869C21.0629 1.87869 21.6024 2.10219 22.0002 2.50001C22.3981 2.89784 22.6216 3.4374 22.6216 4.00001C22.6216 4.56262 22.3981 5.10219 22.0002 5.50001L12.5002 15L8.50024 16L9.50024 12L19.0002 2.50001Z" stroke="white" stroke-width="2" stroke-linecap="round" stroke-linejoin="round"/>
</svg>
