<svg width="25" height="22" viewBox="0 0 25 22" fill="none" xmlns="http://www.w3.org/2000/svg">
<path fill-rule="evenodd" clip-rule="evenodd" d="M24.624 16.1862C24.4862 15.8418 23.9351 15.6696 23.2807 15.704C23.1085 15.7385 22.9363 15.7729 22.7986 15.8074C22.0064 16.0829 18.0111 17.4606 17.9422 17.4606L17.8733 17.495L17.9422 17.5639C18.3555 17.9428 18.5966 18.3561 18.4933 18.7005C18.3555 19.1483 17.7011 19.4582 16.6334 19.5616C15.669 19.6304 14.498 19.5616 13.0858 19.286C13.2581 19.286 13.4303 19.286 13.568 19.286C14.6013 19.286 15.5312 19.286 16.289 19.2516C17.4256 19.1483 17.9766 18.8727 18.08 18.4594C18.08 18.1494 17.9422 17.9428 17.5289 17.7361C17.1156 17.495 16.2201 17.3917 15.3246 17.2539C14.7391 17.185 14.188 17.0817 13.7747 16.9784C12.397 16.5995 10.9849 16.2551 9.33164 16.3929C9.0561 16.4273 8.81501 16.4618 8.57391 16.4962C7.29955 16.7373 6.02519 17.0128 4.75082 17.3917L4.57861 17.4261L6.50738 20.1815C6.81736 20.1126 7.19622 20.0438 7.54065 20.0093C7.98839 19.9404 8.43614 19.9749 8.81501 20.0438C9.33164 20.1126 10.6749 20.3882 11.9493 20.6293C13.2581 20.9393 14.5669 21.1459 15.0146 21.2492C15.3246 21.2837 15.5312 21.2837 15.8412 21.2492C16.4612 21.2148 17.15 20.8704 17.77 20.5259C17.9422 20.3882 18.1489 20.2848 18.3211 20.1815L24.0385 17.1162C24.6929 16.7373 24.6929 16.3929 24.624 16.1862Z" fill="#65ABA1"/>
<path fill-rule="evenodd" clip-rule="evenodd" d="M1.06554 17.0818H3.64871C3.75203 17.0818 3.92424 17.1507 3.99313 17.2884L6.43853 20.7671C6.54185 20.8704 6.50741 20.9738 6.36964 20.9738H3.78647C3.64871 20.9738 3.47649 20.8704 3.44205 20.7671L0.996653 17.2884C0.927769 17.1507 0.962211 17.0818 1.06554 17.0818Z" fill="#398378"/>
<path fill-rule="evenodd" clip-rule="evenodd" d="M19.8812 6.77218C19.7597 6.77218 19.6383 6.72361 19.5411 6.69932C19.0797 6.60217 18.6183 6.62646 18.1568 6.77218C17.8897 6.86932 17.8654 6.84504 17.8411 6.5536C17.744 5.75216 17.5497 4.99929 17.2582 4.2707C16.9425 3.49354 16.4811 2.83781 15.8982 2.25494C15.8254 2.20637 15.7525 2.1578 15.7282 2.06065C15.8011 1.9878 15.8496 2.03637 15.9225 2.03637C17.8897 2.47352 19.5897 4.2707 19.8812 6.26217C19.8812 6.31074 19.9054 6.33503 19.9054 6.3836C19.8812 6.50503 19.8812 6.65075 19.8812 6.77218Z" fill="#398378"/>
<path fill-rule="evenodd" clip-rule="evenodd" d="M8.58806 6.77218C8.70949 6.77218 8.83092 6.72361 8.95236 6.69932C9.41379 6.60217 9.87523 6.62646 10.3367 6.77218C10.6038 6.86932 10.6038 6.84504 10.6524 6.5536C10.7252 5.75216 10.9195 4.99929 11.2353 4.2707C11.5267 3.49354 11.9881 2.83781 12.5953 2.25494C12.6439 2.20637 12.741 2.1578 12.741 2.06065C12.6924 1.9878 12.6196 2.03637 12.5467 2.03637C10.5795 2.47352 8.90378 4.2707 8.58806 6.26217C8.56378 6.31074 8.56378 6.33503 8.53949 6.3836C8.58806 6.50503 8.58806 6.65075 8.58806 6.77218Z" fill="#398378"/>
<path fill-rule="evenodd" clip-rule="evenodd" d="M11.5024 11.2893L12.2067 11.1921C12.2067 11.6536 12.3038 11.9693 12.4738 12.115C12.6196 12.285 12.8139 12.3822 13.1053 12.3822C13.2996 12.3822 13.4453 12.3336 13.591 12.2364C13.7367 12.1393 13.8582 12.0179 13.8824 11.8721C13.931 11.7264 13.9553 11.4836 13.9553 11.1193V7.06348H14.7567V11.0707C14.7567 11.5807 14.7082 11.945 14.5867 12.2364C14.441 12.5036 14.271 12.6979 14.0039 12.8679C13.7367 13.0136 13.4453 13.0865 13.1053 13.0865C12.571 13.0865 12.1824 12.9165 11.9153 12.625C11.5995 12.3336 11.4781 11.8964 11.5024 11.2893Z" fill="#398378"/>
<path fill-rule="evenodd" clip-rule="evenodd" d="M14.4411 0.724854C14.6839 0.967716 14.4411 1.50201 14.5868 1.76916C14.6596 1.91488 14.8782 1.86631 15.0482 1.93916C15.5339 2.20631 15.8982 2.59489 16.2139 3.03204C16.9182 3.9792 17.234 5.07208 17.4283 6.21354C17.4768 6.38354 17.5011 6.50497 17.5254 6.69926C17.5254 6.82069 17.5254 6.89355 17.3554 6.82069C16.5297 6.52926 15.6311 6.38354 14.7568 6.28639C14.0282 6.21354 13.3482 6.33497 12.6196 6.48068C12.1824 6.55354 11.7696 6.65069 11.3567 6.7964C11.1867 6.84498 11.1381 6.77212 11.1624 6.6264C11.1867 6.28639 11.2596 5.9221 11.3324 5.58209C11.5753 4.61065 11.891 3.66348 12.5467 2.86204C12.8382 2.44917 13.2025 2.06059 13.7125 1.89059C14.1253 1.74487 14.1253 1.76916 14.1496 1.30772C14.1496 1.08915 14.0525 0.894857 14.2468 0.724854C14.2953 0.724854 14.3682 0.724854 14.4411 0.724854Z" fill="#65ABA1"/>
</svg>
