<svg width="151" height="151" viewBox="0 0 151 151" fill="none" xmlns="http://www.w3.org/2000/svg">
<rect width="151" height="151" rx="64" fill="#E1F6F3"/>
<path d="M104.5 108.125V100.875C104.5 97.0294 102.972 93.3412 100.253 90.622C97.5338 87.9027 93.8456 86.375 90 86.375H61C57.1544 86.375 53.4662 87.9027 50.747 90.622C48.0277 93.3412 46.5 97.0294 46.5 100.875V108.125" stroke="#398378" stroke-width="7.25" stroke-linecap="round" stroke-linejoin="round"/>
<path d="M75.5 71.875C83.5081 71.875 90 65.3831 90 57.375C90 49.3669 83.5081 42.875 75.5 42.875C67.4919 42.875 61 49.3669 61 57.375C61 65.3831 67.4919 71.875 75.5 71.875Z" stroke="#398378" stroke-width="7.25" stroke-linecap="round" stroke-linejoin="round"/>
</svg>
