<svg width="108" height="108" viewBox="0 0 108 108" fill="none" xmlns="http://www.w3.org/2000/svg">
<path d="M53.8768 93.2372C75.5263 93.2372 93.0767 75.6601 93.0767 53.9776C93.0767 32.2951 75.5263 14.718 53.8768 14.718C32.2273 14.718 14.6769 32.2951 14.6769 53.9776C14.6769 75.6601 32.2273 93.2372 53.8768 93.2372Z" fill="#398378"/>
<path d="M80.6651 80.8178C95.4618 65.9985 95.4619 41.9717 80.6651 27.1525C65.8684 12.3332 41.8781 12.3332 27.0814 27.1525C12.2847 41.9717 12.2847 65.9985 27.0814 80.8178C41.8782 95.637 65.8684 95.637 80.6651 80.8178Z" fill="#75D6C7"/>
<path d="M18.9608 52.5196H18.94C18.7113 52.4988 18.5449 52.3113 18.5657 52.1031C18.6489 50.6035 18.8153 49.1039 19.0856 47.646C19.1272 47.4377 19.3352 47.2919 19.5431 47.3128C19.7511 47.3544 19.8966 47.5627 19.8758 47.771C19.6263 49.2081 19.4599 50.666 19.3768 52.1239C19.3352 52.353 19.1688 52.5196 18.9608 52.5196Z" fill="url(#paint0_linear_4_595)"/>
<path d="M22.6417 38.6069C22.5793 38.6069 22.5169 38.5861 22.4545 38.5652C22.2674 38.4611 22.1842 38.232 22.2674 38.0237C28.3189 26.0063 40.4428 18.5293 53.8768 18.5293C56.0188 18.5293 58.1607 18.7168 60.2611 19.1125C60.4691 19.1541 60.6146 19.3624 60.573 19.5707C60.5315 19.7789 60.3235 19.9456 60.1155 19.8831C58.0775 19.5082 55.9772 19.3207 53.8768 19.3207C40.7547 19.3207 28.9012 26.6103 22.9952 38.3778C22.9328 38.5444 22.7873 38.6069 22.6417 38.6069Z" fill="url(#paint1_linear_4_595)"/>
<path d="M54.7086 86.9264C72.4187 86.9264 86.7756 72.5477 86.7756 54.8106C86.7756 37.0736 72.4187 22.6948 54.7086 22.6948C36.9985 22.6948 22.6416 37.0736 22.6416 54.8106C22.6416 72.5477 36.9985 86.9264 54.7086 86.9264Z" fill="#E1F6F3"/>
<path d="M71.3659 47.4587H63.4428V39.5235C63.4428 37.4199 61.7375 35.7329 59.658 35.7329H49.9672C47.8668 35.7329 46.1823 37.4408 46.1823 39.5235V47.4587H38.2592C36.1588 47.4587 34.4744 49.1666 34.4744 51.2493V60.9549C34.4744 63.0584 36.1796 64.7454 38.2592 64.7454H46.1823V72.6807C46.1823 74.7842 47.8876 76.4713 49.9672 76.4713H59.658C61.7583 76.4713 63.4428 74.7634 63.4428 72.6807V64.7454H71.3659C73.4663 64.7454 75.1508 63.0376 75.1508 60.9549V51.2493C75.1508 49.1666 73.4455 47.4587 71.3659 47.4587Z" fill="url(#paint2_linear_4_595)"/>
<defs>
<linearGradient id="paint0_linear_4_595" x1="18.5512" y1="49.9205" x2="19.8601" y2="49.9205" gradientUnits="userSpaceOnUse">
<stop stop-color="#DAE3FE"/>
<stop offset="1" stop-color="#E9EFFD"/>
</linearGradient>
<linearGradient id="paint1_linear_4_595" x1="22.2362" y1="28.5795" x2="60.5968" y2="28.5795" gradientUnits="userSpaceOnUse">
<stop stop-color="#DAE3FE"/>
<stop offset="1" stop-color="#E9EFFD"/>
</linearGradient>
<linearGradient id="paint2_linear_4_595" x1="87.777" y1="0.288415" x2="63.5995" y2="41.078" gradientUnits="userSpaceOnUse">
<stop stop-color="#398378"/>
<stop offset="1" stop-color="#398378"/>
</linearGradient>
</defs>
</svg>
