<svg width="615" height="496" viewBox="0 0 615 496" fill="none" xmlns="http://www.w3.org/2000/svg">
<g clip-path="url(#clip0_6_9)">
<g clip-path="url(#clip1_6_9)">
<g clip-path="url(#clip2_6_9)">
<g clip-path="url(#clip3_6_9)">
<g clip-path="url(#clip4_6_9)">
<g clip-path="url(#clip5_6_9)">
<g clip-path="url(#clip6_6_9)">
<path d="M662.305 383.276C660.562 384.282 658.237 384.953 656.494 385.289C646.033 387.973 386.845 451.045 220.059 354.759L73.0305 269.88C69.5437 267.867 67.2191 265.183 67.8003 262.163C67.8003 259.48 69.5437 256.46 73.0305 254.447C83.491 248.408 169.5 196.743 189.839 119.244C191.002 114.547 197.394 110.857 205.53 110.186C339.192 98.7792 428.687 49.1266 438.567 43.4232C442.053 41.4103 447.284 39.7328 452.514 40.0683C457.163 40.0683 462.393 41.0747 465.88 43.0877L613.489 128.302C780.276 224.588 671.022 374.218 666.373 380.256C665.211 380.927 664.048 382.269 662.305 383.276ZM111.967 262.163L246.21 339.662C380.453 417.16 593.149 376.23 634.41 367.172C650.101 343.352 721 220.563 586.757 143.064L452.514 65.5656C421.132 81.6692 338.611 118.573 224.708 130.651C203.787 196.407 139.861 244.047 111.967 262.163ZM573.391 295.713L510.628 331.946C503.073 336.307 491.45 336.307 483.895 331.946L421.714 296.048L358.951 332.281C351.396 336.643 339.773 336.643 332.218 332.281L269.455 296.048C261.901 291.687 261.901 284.977 269.455 280.615L332.218 244.382L269.455 208.149C261.901 203.788 261.901 197.078 269.455 192.717L332.218 156.484C339.773 152.122 351.396 152.122 358.951 156.484L421.714 192.717L484.477 156.484C492.031 152.122 503.654 152.122 511.209 156.484L573.972 192.717C581.527 197.078 581.527 203.788 573.972 208.149L511.209 244.382L573.972 280.616C580.946 284.641 580.946 291.351 573.391 295.713ZM497.843 309.132L534.455 287.996L471.692 251.763C464.137 247.402 464.137 240.692 471.692 236.331L534.454 200.098L497.843 178.962L434.499 215.53C426.944 219.892 415.321 219.892 407.766 215.53L345.584 179.633L308.973 200.769L371.736 237.002C379.291 241.363 379.291 248.073 371.736 252.434L309.554 288.332L346.166 309.468L408.929 273.235C416.483 268.873 428.106 268.873 435.661 273.235L497.843 309.132Z" fill="#398378" fill-opacity="0.12"/>
</g>
</g>
</g>
</g>
</g>
</g>
</g>
<defs>
<clipPath id="clip0_6_9">
<rect width="453.614" height="539.841" fill="white" transform="matrix(0.866044 -0.499967 0.866044 0.499967 -1.64575 226.769)"/>
</clipPath>
<clipPath id="clip1_6_9">
<rect width="453.614" height="539.841" fill="white" transform="matrix(0.866044 -0.499967 0.866044 0.499967 -1.64575 226.769)"/>
</clipPath>
<clipPath id="clip2_6_9">
<rect width="453.614" height="539.841" fill="white" transform="matrix(0.866044 -0.499967 0.866044 0.499967 -1.64575 226.769)"/>
</clipPath>
<clipPath id="clip3_6_9">
<rect width="453.614" height="539.841" fill="white" transform="matrix(0.866044 -0.499967 0.866044 0.499967 -1.64575 226.769)"/>
</clipPath>
<clipPath id="clip4_6_9">
<rect width="453.614" height="539.841" fill="white" transform="matrix(0.866044 -0.499967 0.866044 0.499967 -1.64575 226.769)"/>
</clipPath>
<clipPath id="clip5_6_9">
<rect width="453.614" height="539.841" fill="white" transform="matrix(0.866044 -0.499967 0.866044 0.499967 -1.64575 226.769)"/>
</clipPath>
<clipPath id="clip6_6_9">
<rect width="453.614" height="539.841" fill="white" transform="matrix(0.866044 -0.499967 0.866044 0.499967 -1.64575 226.769)"/>
</clipPath>
</defs>
</svg>
