<svg width="80" height="34" viewBox="0 0 80 34" fill="none" xmlns="http://www.w3.org/2000/svg">
<g clip-path="url(#clip0_6_276)">
<g clip-path="url(#clip1_6_276)">
<g clip-path="url(#clip2_6_276)">
<g clip-path="url(#clip3_6_276)">
<g clip-path="url(#clip4_6_276)">
<g clip-path="url(#clip5_6_276)">
<g clip-path="url(#clip6_6_276)">
<g clip-path="url(#clip7_6_276)">
<path d="M43.6909 15.5269V17.9775H36.2903V23.4712H44.943V25.9469H33.1577V8.09485H44.8517V10.5956H36.2903V15.5269H43.6909ZM57.8738 15.9035V18.3842H50.6202V25.9469H47.4876V8.09485H58.9383V10.5956H50.6202V15.9035H57.8738ZM64.7118 8.09485V25.9469H61.5944V8.09485H64.7118ZM71.6917 8.09485V23.4712H79.8729V25.9469H68.5591V8.09485H71.6917Z" fill="#398378"/>
</g>
</g>
</g>
</g>
<g clip-path="url(#clip8_6_276)">
<g clip-path="url(#clip9_6_276)">
<path d="M14.464 34.0417C14.3358 34.0417 14.2077 33.9993 14.1223 33.957C13.567 33.7455 0.0272217 28.287 0.0272217 16.1428V5.43736C0.0272217 5.18347 0.112646 4.92959 0.326207 4.76033C0.497057 4.59108 0.753331 4.46413 1.0096 4.46413C1.77843 4.46413 8.22799 4.33719 13.9087 0.190413C14.2504 -0.0634711 14.7203 -0.0634711 15.062 0.190413C20.7 4.33719 27.1495 4.46413 27.8756 4.46413C28.1319 4.46413 28.4309 4.54876 28.6018 4.76033C28.7726 4.92959 28.9007 5.18347 28.9007 5.43736V16.1851C28.9007 28.3293 15.3609 33.7878 14.8057 33.9993C14.7203 33.9993 14.5921 34.0417 14.464 34.0417ZM1.94928 6.36827V16.1428C1.94928 25.9174 12.3711 31.0797 14.464 32.0106C16.5569 31.0797 26.9787 25.9174 26.9787 16.1428V6.36827C24.8004 6.24132 19.4186 5.5643 14.464 2.17917C9.50935 5.5643 4.1276 6.24132 1.94928 6.36827ZM16.7704 25.2827H12.1575C11.6023 25.2827 11.1751 24.8595 11.1751 24.3094V19.7818H6.5622C6.00694 19.7818 5.57982 19.3587 5.57982 18.8086V14.2387C5.57982 13.6886 6.00694 13.2655 6.5622 13.2655H11.1751V8.69554C11.1751 8.14546 11.6023 7.72232 12.1575 7.72232H16.7704C17.3257 7.72232 17.7528 8.14546 17.7528 8.69554V13.2655H22.3658C22.921 13.2655 23.3481 13.6886 23.3481 14.2387V18.8086C23.3481 19.3587 22.921 19.7818 22.3658 19.7818H17.7528V24.3517C17.7528 24.8595 17.3257 25.2827 16.7704 25.2827ZM13.1399 23.3785H15.8308V18.8086C15.8308 18.2585 16.2579 17.8354 16.8132 17.8354H21.4261V15.1696H16.7704C16.2152 15.1696 15.7881 14.7465 15.7881 14.1964V9.66876H13.0972V14.2387C13.0972 14.7888 12.6701 15.2119 12.1148 15.2119H7.54459V17.8777H12.1575C12.7128 17.8777 13.1399 18.3008 13.1399 18.8509V23.3785Z" fill="#398378"/>
</g>
</g>
</g>
</g>
</g>
</g>
<defs>
<clipPath id="clip0_6_276">
<rect width="80" height="34" fill="white"/>
</clipPath>
<clipPath id="clip1_6_276">
<rect width="80" height="34" fill="white" transform="translate(-0.0485229 0.020752)"/>
</clipPath>
<clipPath id="clip2_6_276">
<rect width="79.8485" height="34.0417" fill="white" transform="translate(0.0272217)"/>
</clipPath>
<clipPath id="clip3_6_276">
<rect width="79.8485" height="34.0417" fill="white" transform="translate(0.0272217)"/>
</clipPath>
<clipPath id="clip4_6_276">
<rect width="46.7209" height="17.852" fill="white" transform="translate(33.1548 8.09482)"/>
</clipPath>
<clipPath id="clip5_6_276">
<rect width="46.7209" height="17.852" fill="white" transform="translate(33.1548 8.09482)"/>
</clipPath>
<clipPath id="clip6_6_276">
<rect width="46.7209" height="17.852" fill="white" transform="translate(33.1548 8.09482)"/>
</clipPath>
<clipPath id="clip7_6_276">
<rect width="46.7209" height="17.852" fill="white" transform="translate(33.1548 8.09482)"/>
</clipPath>
<clipPath id="clip8_6_276">
<rect width="28.8735" height="34.0417" fill="white" transform="translate(0.0272217)"/>
</clipPath>
<clipPath id="clip9_6_276">
<rect width="28.8735" height="34.0417" fill="white" transform="translate(0.0272217)"/>
</clipPath>
</defs>
</svg>
